<?xml version="1.0" encoding="utf-8"?>
<!-- Generator: Adobe Illustrator 15.0.0, SVG Export Plug-In . SVG Version: 6.00 Build 0)  -->
<!DOCTYPE svg PUBLIC "-//W3C//DTD SVG 1.1//EN" "http://www.w3.org/Graphics/SVG/1.1/DTD/svg11.dtd">
<svg version="1.1" id="Capa_1" xmlns="http://www.w3.org/2000/svg" xmlns:xlink="http://www.w3.org/1999/xlink" x="0px" y="0px"
	 width="616px" height="1178px" viewBox="239.95 -150.38 616 1178" enable-background="new 239.95 -150.38 616 1178"
	 xml:space="preserve">
<path fill="#FFFFFF" d="M763.467,878.417l-0.001-160.09c0.432-22.475-5.271-42.319-16.543-58.111
	c-3.741-7.217-8.504-13.758-14.25-19.505c-16.32-16.321-39.146-24.863-65.922-24.864h-91.296
	c-1.785-6.629-3.953-13.133-5.992-19.253c-2.55-7.651-4.846-14.791-6.376-21.677c-15.173-67.962-18.489-140.131-10.328-220.461
	c4.845-41.312,11.986-72.934,23.207-101.24c22.824,1.147,45.393,1.02,67.325,0.765c7.777-0.128,15.683-0.128,23.589-0.128
	c27.542,0,50.876-8.543,67.069-24.736c5.595-5.595,10.29-12.027,14.035-19.191c11.43-15.936,17.455-36.432,17.348-60.039v-79.38
	c0-9.323,0.133-18.247,0.266-27.437c0.267-17.848,0.4-36.361-0.266-53.809c-0.267-27.17-9.324-50.344-26.371-67.393
	c-16.915-16.914-40.223-26.104-68.059-26.77h-99.624c-36.227-0.001-68.458,11.72-96.028,35.027
	c-34.363,29.301-62.332,68.99-88.037,125.062c-39.956,86.572-63.53,180.469-74.052,295.409
	c-12.386,139.181,4.263,275.164,49.146,404.487c17.447,48.881,43.153,111.879,89.368,164.487c2.931,3.195,5.728,6.259,8.791,9.321
	c33.164,33.164,71.255,48.349,116.54,46.484c0.267,0,0.799-0.001,1.199-0.135c17.047-1.598,34.228-1.198,52.342-0.932
	c12.253,0.267,24.906,0.399,37.426,0.133C725.907,973.247,763.466,935.688,763.467,878.417z M712.271,706.251l0.128,153.646
	c0,30.602-16.703,47.05-48.452,47.688c-11.094,0.383-22.187,0.255-33.918,0c-17.596-0.255-35.829-0.637-54.318,1.021
	c-30.474,1.147-55.339-8.926-77.907-31.494c-2.167-2.167-4.335-4.591-6.375-6.886c-39.145-44.5-61.713-99.711-77.015-142.809
	c-40.93-117.689-56.103-241.755-44.754-368.625c9.69-104.812,30.984-190.115,66.941-268.404
	c21.931-48.197,45.138-81.351,72.807-104.938c18.488-15.429,39.145-23.079,63.626-23.079h94.866
	c14.536,0.255,26.394,4.717,34.3,12.623c7.777,7.777,11.986,19.381,11.857,34.045c0.639,16.447,0.383,32.77,0.256,50.238
	c-0.127,8.797-0.127,17.723-0.255,26.776l-0.001,75.995c0.001,6.612-0.701,12.568-2.084,17.85c-1.598,2.766-3.474,5.244-5.643,7.413
	c-8.258,8.258-20.91,12.386-37.426,12.386c-8.258,0-16.648,0.133-24.906,0.133c-24.906,0.133-48.346,0.4-72.454-1.065
	c-0.532,0.001-0.799,0-1.331,0c-22.108,0-30.899,12.255-36.227,22.909c-0.267,0.531-0.4,0.932-0.666,1.465
	c-14.384,34.895-23.575,72.586-29.302,122.799c-9.323,89.234-5.46,169.546,11.455,245.33c1.998,9.456,5.194,18.513,7.992,27.17
	c2.664,7.99,5.061,15.449,6.659,22.642c0.266,0.8,0.399,1.465,0.666,2.263c2.132,6.66,5.328,11.989,9.589,16.251
	c10.655,10.655,24.374,10.788,28.902,10.788l99.624-0.001c15.449,0.001,27.969,4.263,36.227,12.52
	c2.258,2.259,4.092,4.743,5.605,7.349C712.114,695.831,712.449,701.43,712.271,706.251z"/>
</svg>
